HIERARCHY
ROOT hip
{
  OFFSET 0 0 0
  CHANNELS 6 Xposition Yposition Zposition Zrotation Yrotation Xrotation
  JOINT abdomen
  {
    OFFSET 0 20.6881 -0.73152
    CHANNELS 3 Zrotation Xrotation Yrotation
    JOINT chest
    {
      OFFSET 0 11.7043 -0.48768
      CHANNELS 3 Zrotation Xrotation Yrotation
      JOINT neck
      {
        OFFSET 0 22.1894 -2.19456
        CHANNELS 3 Zrotation Xrotation Yrotation
        JOINT head
        {
          OFFSET -0.24384 7.07133 1.2192
          CHANNELS 3 Zrotation Xrotation Yrotation
          JOINT leftEye
          {
            OFFSET 4.14528 8.04674 8.04672
            CHANNELS 3 Zrotation Xrotation Yrotation
            End Site
            {
              OFFSET 1 0 0
            }
          }
          JOINT rightEye
          {
            OFFSET -3.6576 8.04674 8.04672
            CHANNELS 3 Zrotation Xrotation Yrotation
            End Site
            {
              OFFSET 1 0 0
            }
          }
        }
      }
      JOINT rCollar
      {
        OFFSET -2.68224 19.2634 -4.8768
        CHANNELS 3 Zrotation Xrotation Yrotation
        JOINT rShldr
        {
          OFFSET -8.77824 -1.95073 1.46304
          CHANNELS 3 Zrotation Xrotation Yrotation
          JOINT rForeArm
          {
            OFFSET -28.1742 -1.7115 0.48768
            CHANNELS 3 Zrotation Xrotation Yrotation
            JOINT rHand
            {
              OFFSET -22.5879 0.773209 7.07136
              CHANNELS 3 Zrotation Xrotation Yrotation
              JOINT rThumb1
              {
                OFFSET -1.2192 -0.487915 3.41376
                CHANNELS 3 Zrotation Xrotation Yrotation
                JOINT rThumb2
                {
                  OFFSET -3.37035 -0.52449 3.41376
                  CHANNELS 3 Zrotation Xrotation Yrotation
                  End Site
                  {
                    OFFSET -1.78271 -1.18214 1.43049
                  }
                }
              }
              JOINT rIndex1
              {
                OFFSET -7.75947 0.938293 5.60832
                CHANNELS 3 Zrotation Xrotation Yrotation
                JOINT rIndex2
                {
                  OFFSET -2.54057 -0.884171 1.56538
                  CHANNELS 3 Zrotation Xrotation Yrotation
                  End Site
                  {
                    OFFSET -1.62519 -0.234802 1.16502
                  }
                }
              }
              JOINT rMid1
              {
                OFFSET -8.24714 1.18213 3.41376
                CHANNELS 3 Zrotation Xrotation Yrotation
                JOINT rMid2
                {
                  OFFSET -3.10165 -0.590103 1.0647
                  CHANNELS 3 Zrotation Xrotation Yrotation
                  End Site
                  {
                    OFFSET -2.48547 -0.328903 0.83742
                  }
                }
              }
              JOINT rRing1
              {
                OFFSET -8.82822 0.546677 1.51678
                CHANNELS 3 Zrotation Xrotation Yrotation
                JOINT rRing2
                {
                  OFFSET -2.60934 -0.819778 -0.0198488
                  CHANNELS 3 Zrotation Xrotation Yrotation
                  End Site
                  {
                    OFFSET -2.33842 -0.294052 0.168128
                  }
                }
              }
              JOINT rPinky1
              {
                OFFSET -8.27202 -0.0477905 -0.4584
                CHANNELS 3 Zrotation Xrotation Yrotation
                JOINT rPinky2
                {
                  OFFSET -1.82734 -0.647385 -0.700984
                  CHANNELS 3 Zrotation Xrotation Yrotation
                  End Site
                  {
                    OFFSET -1.69225 -0.51767 -0.607171
                  }
                }
              }
            }
          }
        }
      }
      JOINT lCollar
      {
        OFFSET 2.68224 19.2634 -4.8768
        CHANNELS 3 Zrotation Xrotation Yrotation
        JOINT lShldr
        {
          OFFSET 8.77824 -1.95073 1.46304
          CHANNELS 3 Zrotation Xrotation Yrotation
          JOINT lForeArm
          {
            OFFSET 28.1742 -1.7115 0.48768
            CHANNELS 3 Zrotation Xrotation Yrotation
            JOINT lHand
            {
              OFFSET 22.5879 0.773209 7.07136
              CHANNELS 3 Zrotation Xrotation Yrotation
              JOINT lThumb1
              {
                OFFSET 1.2192 -0.487915 3.41376
                CHANNELS 3 Zrotation Xrotation Yrotation
                JOINT lThumb2
                {
                  OFFSET 3.37035 -0.52449 3.41376
                  CHANNELS 3 Zrotation Xrotation Yrotation
                  End Site
                  {
                    OFFSET 1.78271 -1.18214 1.43049
                  }
                }
              }
              JOINT lIndex1
              {
                OFFSET 7.75947 0.938293 5.60832
                CHANNELS 3 Zrotation Xrotation Yrotation
                JOINT lIndex2
                {
                  OFFSET 2.54057 -0.884171 1.56538
                  CHANNELS 3 Zrotation Xrotation Yrotation
                  End Site
                  {
                    OFFSET 1.62519 -0.234802 1.16502
                  }
                }
              }
              JOINT lMid1
              {
                OFFSET 8.24714 1.18213 3.41376
                CHANNELS 3 Zrotation Xrotation Yrotation
                JOINT lMid2
                {
                  OFFSET 3.10165 -0.590103 1.0647
                  CHANNELS 3 Zrotation Xrotation Yrotation
                  End Site
                  {
                    OFFSET 2.48547 -0.328903 0.83742
                  }
                }
              }
              JOINT lRing1
              {
                OFFSET 8.82822 0.546677 1.51678
                CHANNELS 3 Zrotation Xrotation Yrotation
                JOINT lRing2
                {
                  OFFSET 2.60934 -0.819778 -0.0198488
                  CHANNELS 3 Zrotation Xrotation Yrotation
                  End Site
                  {
                    OFFSET 2.33842 -0.294052 0.168128
                  }
                }
              }
              JOINT lPinky1
              {
                OFFSET 8.27202 -0.0477905 -0.4584
                CHANNELS 3 Zrotation Xrotation Yrotation
                JOINT lPinky2
                {
                  OFFSET 1.82734 -0.647385 -0.700984
                  CHANNELS 3 Zrotation Xrotation Yrotation
                  End Site
                  {
                    OFFSET 1.69225 -0.51767 -0.607171
                  }
                }
              }
            }
          }
        }
      }
    }
  }
  JOINT rButtock
  {
    OFFSET -8.77824 4.35084 1.2192
    CHANNELS 3 Zrotation Xrotation Yrotation
    JOINT rThigh
    {
      OFFSET 0 -1.70687 -2.19456
      CHANNELS 3 Zrotation Xrotation Yrotation
      JOINT rShin
      {
        OFFSET 0 -36.8199 0.73152
        CHANNELS 3 Zrotation Xrotation Yrotation
        JOINT rFoot
        {
          OFFSET 0.73152 -45.1104 -5.12064
          CHANNELS 3 Zrotation Xrotation Yrotation
          End Site
          {
            OFFSET -1.1221 -3.69964 12.103
          }
        }
      }
    }
  }
  JOINT lButtock
  {
    OFFSET 8.77824 4.35084 1.2192
    CHANNELS 3 Zrotation Xrotation Yrotation
    JOINT lThigh
    {
      OFFSET 0 -1.70687 -2.19456
      CHANNELS 3 Zrotation Xrotation Yrotation
      JOINT lShin
      {
        OFFSET 0 -36.8199 0.73152
        CHANNELS 3 Zrotation Xrotation Yrotation
        JOINT lFoot
        {
          OFFSET -0.73152 -45.1104 -5.12064
          CHANNELS 3 Zrotation Xrotation Yrotation
          End Site
          {
            OFFSET 1.1221 -3.69964 12.103
          }
        }
      }
    }
  }
}
MOTION
Frames:	4
Frame Time:	0.03333
0.000447593629360199 -5.380038544535637 -0.0006052665412425995 -4.186952590942383 2.1602847576141357 6.273777961730957 -2.5806312561035156 13.729631423950195 3.8044369220733643 2.8546226024627686 -9.425470352172852 1.263000249862671 -5.557430267333984 15.051275253295898 -4.343783855438232 9.075547218322754 -24.074607849121094 -6.481651782989502 0.008883558213710785 0.013295570388436317 0.11975894123315811 0.0466926246881485 0.07124901562929153 -0.0899791494011879 0.09706734865903854 0.06388039886951447 -0.04895918816328049 47.23033905029297 37.683109283447266 17.238204956054688 -27.147798538208008 -26.40802764892578 61.85511016845703 -0.1613726168870926 -10.063136100769043 -1.373669981956482 0.014819805510342121 -0.004289595410227776 0.16686712205410004 0.1153096854686737 -0.13838566839694977 0.02538900077342987 -0.07811234891414642 0.034823957830667496 0.046286143362522125 7.730109691619873 5.473052024841309 0.5057189464569092 -0.04853091761469841 -0.02066764608025551 0.03163301199674606 2.8525784015655518 0.9089409112930298 0.20163163542747498 0.0013051816495135427 -0.03640436381101608 0.04801467806100845 10.200111389160156 0.5459620952606201 0.21742643415927887 0.03260187432169914 0.03753254562616348 -0.12690971791744232 2.2928547859191895 -0.760979950428009 -0.033397793769836426 -0.004412529524415731 0.04058985412120819 -0.056427210569381714 -55.41093063354492 40.469791412353516 -26.40154457092285 26.51262855529785 -25.106430053710938 -59.10795593261719 0.1914084106683731 -12.131680488586426 1.5825390815734863 0.0022514360025525093 -0.0761636346578598 -0.012592172250151634 -0.04966168850660324 0.22527870535850525 0.03696779906749725 -0.04504133015871048 0.07173200696706772 -0.013695009984076023 -7.640094757080078 5.497506618499756 -0.38745614886283875 -0.026454143226146698 -0.029158109799027443 0.20428261160850525 -3.002401351928711 1.0054559707641602 -0.32709670066833496 0.05305445194244385 0.09516502171754837 -0.10695012658834457 -10.217460632324219 0.7467128038406372 -0.00016144772234838456 -0.028896724805235863 -0.06260817497968674 -0.09035137295722961 -2.207209587097168 -0.729283332824707 0.31732624769210815 -0.10360301285982132 0.057463131844997406 0.13532058894634247 -23.06523895263672 -38.279808044433594 -18.767749786376953 -1.388162612915039 63.17374801635742 2.4751765727996826 -3.6819067001342773 -10.668353080749512 -9.930145263671875 -0.15118400752544403 0.001949990401044488 -0.0781874805688858 28.143638610839844 -38.32693099975586 21.13374900817871 1.3911694288253784 63.63561248779297 -2.653768539428711 4.166871547698975 -10.932540893554688 13.6382474899292
-0.001243874430656433 -5.403460934758186 0.0009160488843917847 -3.929121494293213 2.892642021179199 6.68253755569458 -2.628258466720581 13.654029846191406 3.8386831283569336 2.863250732421875 -9.421927452087402 1.162439227104187 -5.581203937530518 15.061964988708496 -4.506096363067627 9.195611953735352 -24.050674438476562 -6.7115373611450195 0.030577391386032104 0.05387446656823158 0.0981648713350296 0.06838041543960571 0.0856049433350563 0.001171537209302187 0.1228954941034317 0.04286597669124603 -0.07943766564130783 46.92672348022461 37.23164367675781 17.727336883544922 -26.93610954284668 -26.043806076049805 61.51760482788086 -0.16343994438648224 -9.817445755004883 -1.3002266883850098 -0.007105435710400343 -0.05945958197116852 0.08906696736812592 0.08329205960035324 -0.1740892380475998 0.1022484228014946 -0.06596122682094574 -0.00044081220403313637 0.05939152464270592 7.767977237701416 5.486724853515625 0.5585509538650513 -0.018780414015054703 0.01670866273343563 0.08640571683645248 2.7803564071655273 0.9077275991439819 0.2253454029560089 0.02822813391685486 -0.047593045979738235 0.1188223659992218 10.1456937789917 0.4790875315666199 0.22420473396778107 0.09951342642307281 0.08150824159383774 -0.09452950954437256 2.3009414672851562 -0.7346355319023132 -0.06876391172409058 0.049957625567913055 0.03429415822029114 -0.08225488662719727 -55.52463150024414 40.932491302490234 -26.172321319580078 26.489179611206055 -25.195568084716797 -59.31756591796875 0.22686219215393066 -12.417438507080078 1.6117428541183472 -0.049420300871133804 -0.015408661216497421 -0.0250528734177351 -0.01203839760273695 0.2401488721370697 0.017056167125701904 0.007897300645709038 0.04272301867604256 0.06797279417514801 -7.659205436706543 5.496044158935547 -0.38793161511421204 -0.045342348515987396 -0.047541543841362 0.17235535383224487 -2.985024929046631 1.0345656871795654 -0.29230549931526184 0.06474027037620544 -0.012494245544075966 -0.14044293761253357 -10.190125465393066 0.7252390384674072 0.0057395887561142445 -0.04897412285208702 -0.10588906705379486 -0.010832110419869423 -2.176128625869751 -0.7459333539009094 0.32045474648475647 -0.16832470893859863 0.09901793301105499 0.1642622947692871 -23.297094345092773 -38.59768295288086 -18.903278350830078 -1.5022190809249878 63.31877899169922 2.5389575958251953 -3.6731667518615723 -10.483150482177734 -9.665181159973145 -0.20728400349617004 0.04765630513429642 -0.10292661935091019 27.366336822509766 -37.98542404174805 20.655170440673828 1.5430351495742798 63.43238830566406 -2.788482427597046 4.2265825271606445 -11.175893783569336 13.71246337890625
-0.006944313645362854 -4.8223283141851425 -0.007205549627542496 -1.9115711450576782 47.14089584350586 5.240062713623047 -6.055936336517334 11.289024353027344 -2.5951621532440186 7.480842113494873 -10.721697807312012 -0.21162846684455872 -9.646937370300293 19.9538516998291 -15.519490242004395 15.0436429977417 -26.077238082885742 -28.081645965576172 -0.29189956188201904 0.11855369806289673 -0.001935295294970274 -0.10798327624797821 -0.03706786409020424 -0.08164362609386444 0.3598608076572418 0.2791215181350708 0.002771812491118908 52.869537353515625 -2.1726796627044678 22.527965545654297 -28.129589080810547 -29.89928436279297 67.19942474365234 -0.2906191051006317 16.831558227539062 2.483384609222412 0.1139894351363182 0.09092310070991516 0.014609442092478275 0.1512945592403412 -0.07068315148353577 -0.24209529161453247 0.11194391548633575 -0.2906898856163025 0.05905686691403389 7.878817558288574 5.604707717895508 0.23686817288398743 -0.08457434177398682 -0.013128603808581829 0.0974229946732521 2.79373836517334 0.7719219923019409 0.2828758656978607 0.14180612564086914 -0.08127225190401077 0.20467016100883484 10.08035945892334 0.46835416555404663 0.2873649597167969 -0.06421725451946259 -0.10464653372764587 -0.0022495014127343893 2.0831801891326904 -0.6896142959594727 -0.3424469232559204 -0.20918016135692596 0.038546815514564514 -0.18024645745754242 -83.39895629882812 78.9056396484375 8.801025390625 26.937259674072266 -43.48748779296875 -90.83497619628906 30.216711044311523 -76.91834259033203 37.31675720214844 0.19799114763736725 0.06516379863023758 0.017572831362485886 0.0838906317949295 -0.02039150707423687 -0.015529324300587177 -0.14060458540916443 -0.01767144724726677 0.1778094470500946 -7.466210842132568 5.0621185302734375 -0.5431531071662903 0.01522770430892706 0.21860483288764954 0.10600291937589645 -3.1246137619018555 1.0288528203964233 -0.2911648452281952 0.19389761984348297 0.06432561576366425 -0.03737052530050278 -9.975318908691406 0.6059154868125916 -0.15673507750034332 0.07159962505102158 0.15768428146839142 -0.12590724229812622 -2.4562768936157227 -0.9062248468399048 0.10805445909500122 -0.2848066985607147 -0.006804772187024355 0.19369550049304962 -59.50731658935547 -47.47737503051758 -58.641357421875 -2.5116193294525146 66.03900909423828 2.9139742851257324 0.6988386511802673 4.23225736618042 9.990824699401855 -0.20932438969612122 -0.0874553695321083 0.0218316912651062 27.214420318603516 -24.48041534423828 29.54328155517578 6.428898334503174 79.83500671386719 -9.193167686462402 12.995420455932617 -28.956907272338867 25.45936393737793
-0.036254338920116425 -4.7401659190654755 -0.0046710483729839325 0.10973959416151047 43.09272384643555 4.463334083557129 -6.735735893249512 9.073258399963379 -2.7038042545318604 7.315576076507568 -10.601848602294922 0.050553105771541595 -10.084378242492676 19.92943572998047 -15.751928329467773 15.53341007232666 -23.954965591430664 -29.112382888793945 -0.023701466619968414 0.18720582127571106 -0.17949719727039337 0.09452575445175171 -0.15551215410232544 0.13648353517055511 0.1542348861694336 0.2630540132522583 -0.1335538923740387 58.98076248168945 -1.9497205018997192 23.966171264648438 -28.270679473876953 -30.795839309692383 69.27581787109375 -0.5231190323829651 17.367958068847656 2.6907601356506348 -0.05455172061920166 -0.19524520635604858 -0.05408547446131706 0.11869584769010544 0.05854225531220436 -0.19432304799556732 -0.07472708821296692 -0.11155194044113159 -0.1907033771276474 7.913548946380615 5.525132656097412 0.3631531596183777 -0.10586094111204147 0.1247992217540741 -0.105078786611557 2.7175650596618652 0.7211005687713623 0.2920151650905609 0.107471764087677 -0.13769052922725677 0.6241462826728821 9.928746223449707 0.3771384656429291 0.16893018782138824 -0.16834025084972382 0.17694075405597687 -0.31111782789230347 2.150334358215332 -1.2054082155227661 -0.1418895572423935 -0.37041935324668884 -0.21028099954128265 -0.26514026522636414 -76.54853820800781 79.73796081542969 0.27509966492652893 27.597761154174805 -42.047584533691406 -87.99468231201172 34.300140380859375 -78.55257415771484 41.63620376586914 -0.17075572907924652 0.027662837877869606 -0.11910547316074371 0.10486216098070145 -0.053681157529354095 0.11029105633497238 -0.1806413233280182 -0.12179642170667648 0.1650814712047577 -7.4950690269470215 5.516843318939209 -0.426007479429245 -0.023154469206929207 0.0767093226313591 -0.11453817039728165 -3.1333794593811035 1.0011398792266846 -0.2817009389400482 0.3608834147453308 -0.019159691408276558 -0.20243331789970398 -9.869102478027344 0.7660285234451294 0.08253379166126251 0.023660950362682343 0.08381535112857819 -0.22603923082351685 -2.4454166889190674 -0.8780850768089294 0.1544049233198166 0.11212457716464996 -0.03224492073059082 0.14458367228507996 -60.985233306884766 -44.06394577026367 -60.697086334228516 -2.0024232864379883 65.59434509277344 2.3904082775115967 0.2589055001735687 5.583206653594971 11.376252174377441 -0.2305557131767273 -0.09187442809343338 -0.22469933331012726 29.69448471069336 -22.893856048583984 33.66946029663086 5.552593231201172 79.77548217773438 -8.313307762145996 13.14534854888916 -30.39984130859375 24.706310272216797
